<?xml version="1.0" encoding="utf-8"?>
<!-- Generator: Adobe Illustrator 19.0.0, SVG Export Plug-In . SVG Version: 6.00 Build 0)  -->
<svg version="1.1" id="Layer_1" xmlns="http://www.w3.org/2000/svg" xmlns:xlink="http://www.w3.org/1999/xlink" x="0px" y="0px"
	 viewBox="0 0 612 421.4" style="enable-background:new 0 0 612 421.4;" xml:space="preserve">
<style type="text/css">
	.st0{fill:#F0B01E;}
	.st1{fill:#FFF200;}
</style>
<path id="XMLID_13_" class="st0" d="M129.7,352.5c0,11.2-9.1,20.3-20.3,20.3c-11.2,0-20.3-9.1-20.3-20.3c0-11.2,9.1-20.3,20.3-20.3
	C120.6,332.2,129.7,341.3,129.7,352.5z"/>
<path id="XMLID_8_" class="st0" d="M612,0v332.2C428.5,332.2,279.8,183.5,279.8,0H612z"/>
<path id="XMLID_7_" class="st1" d="M612,0v332.2C428.5,332.2,279.8,183.5,279.8,0H612z"/>
<path id="XMLID_10_" class="st1" d="M129.7,352.5c0,11.2-9.1,20.3-20.3,20.3c-11.2,0-20.3-9.1-20.3-20.3c0-11.2,9.1-20.3,20.3-20.3
	C120.6,332.2,129.7,341.3,129.7,352.5z"/>
</svg>
